<svg width="178" height="50" viewBox="0 0 178 50" fill="none" xmlns="http://www.w3.org/2000/svg">
<g clip-path="url(#clip0_7482_140)">
<path d="M59.511 47.7176C59.3084 48.1751 59.0239 48.5765 58.6618 48.9175C58.2997 49.2585 57.8644 49.5261 57.3471 49.716C56.8299 49.906 56.2307 50.0009 55.5497 50.0009C54.7997 50.0009 54.1315 49.8757 53.541 49.6211C52.9505 49.3664 52.4548 49.0039 52.0496 48.5334C51.6444 48.0629 51.3384 47.4845 51.1272 46.8069C50.916 46.1292 50.8125 45.3695 50.8125 44.5322C50.8125 43.6948 50.9289 42.9049 51.1573 42.2229C51.3858 41.541 51.7091 40.9626 52.1272 40.4878C52.5453 40.013 53.0453 39.6548 53.6315 39.4044C54.2177 39.1541 54.86 39.0332 55.5583 39.0332C56.2092 39.0332 56.7738 39.1152 57.2523 39.2835C57.7308 39.4476 58.1359 39.685 58.4722 39.9914C58.8084 40.2979 59.0756 40.6648 59.2739 41.0964C59.4722 41.528 59.623 42.0028 59.7179 42.5294L57.9808 42.7798C57.9032 42.4301 57.804 42.115 57.6877 41.8431C57.5713 41.5712 57.4161 41.3381 57.2264 41.1482C57.0368 40.9583 56.804 40.8115 56.5325 40.7079C56.2609 40.6043 55.9333 40.5525 55.554 40.5525C55.0885 40.5525 54.6747 40.6432 54.3126 40.8288C53.9505 41.0144 53.6488 41.2777 53.3988 41.6273C53.1488 41.9726 52.9634 42.3913 52.8384 42.879C52.7134 43.3668 52.6487 43.9149 52.6487 44.5192C52.6487 45.1235 52.7134 45.6846 52.847 46.1724C52.9807 46.6601 53.1703 47.0788 53.4246 47.4241C53.6789 47.7694 53.9807 48.0327 54.3384 48.214C54.6962 48.3953 55.1014 48.4859 55.5583 48.4859C55.9678 48.4859 56.3169 48.4341 56.6014 48.3262C56.8859 48.2183 57.1316 48.0672 57.3256 47.873C57.5196 47.6788 57.6747 47.4414 57.7868 47.1651C57.8989 46.8889 57.9808 46.5738 58.0282 46.2198H59.8989C59.8386 46.768 59.7093 47.2687 59.5023 47.7262L59.511 47.7176Z" fill="white"/>
<path d="M68.3024 48.2008H73.475L73.2551 49.7374H66.5352V39.292H68.3024V48.2008Z" fill="white"/>
<path d="M86.8109 39.2924V40.8117H81.6384V43.5914H86.5178V45.128H81.6384V48.2142H87.0868L86.8842 49.7335H79.8711V39.2881H86.8109V39.2924Z" fill="white"/>
<path d="M98.6544 39.292L102.629 49.7374H100.745L99.7665 47.0743H95.7189L94.7534 49.7374H92.9258L96.9 39.292H98.6544ZM97.7362 41.2948L96.2017 45.5938H99.2837L97.7362 41.2948Z" fill="white"/>
<path d="M110.501 39.292L115.294 46.8412V39.292H117.018V49.7374H115.38L110.574 42.2184V49.7374H108.867V39.292H110.505H110.501Z" fill="white"/>
<path d="M125.97 39.292V49.7374H124.203V39.292H125.97Z" fill="white"/>
<path d="M134.774 39.292L139.567 46.8412V39.292H141.292V49.7374H139.654L134.848 42.2184V49.7374H133.141V39.292H134.779H134.774Z" fill="white"/>
<path d="M157.112 48.4945C156.577 48.9909 155.944 49.3664 155.211 49.6211C154.478 49.8757 153.745 50.0009 153.004 50.0009C152.194 50.0009 151.487 49.8714 150.879 49.6125C150.271 49.3535 149.763 48.9866 149.353 48.5161C148.944 48.0413 148.638 47.4716 148.435 46.7982C148.232 46.1249 148.129 45.3695 148.129 44.5322C148.129 43.6948 148.241 42.9222 148.465 42.2445C148.689 41.5669 149.004 40.9885 149.413 40.5094C149.823 40.0303 150.319 39.6677 150.905 39.413C151.491 39.1584 152.142 39.0332 152.862 39.0332C153.495 39.0332 154.047 39.1152 154.521 39.2749C154.995 39.4346 155.392 39.6591 155.72 39.9396C156.047 40.2202 156.31 40.5525 156.508 40.9281C156.707 41.3036 156.853 41.705 156.939 42.1366L155.202 42.387C155.125 42.0935 155.03 41.8345 154.918 41.6057C154.806 41.377 154.659 41.1827 154.478 41.0273C154.297 40.8719 154.077 40.7511 153.814 40.6691C153.551 40.5871 153.237 40.5439 152.866 40.5439C152.379 40.5439 151.952 40.6389 151.586 40.8288C151.22 41.0187 150.918 41.2906 150.672 41.6402C150.426 41.9899 150.25 42.4085 150.133 42.8963C150.017 43.384 149.957 43.9236 149.957 44.5192C149.957 45.1149 150.017 45.6846 150.133 46.1724C150.25 46.6601 150.435 47.0788 150.689 47.4241C150.944 47.7694 151.263 48.037 151.646 48.2226C152.03 48.4082 152.495 48.4988 153.043 48.4988C153.53 48.4988 153.97 48.4471 154.358 48.3435C154.745 48.2399 155.12 48.0629 155.483 47.8082V45.6889H153.176V44.1955H157.12V48.4945H157.112Z" fill="white"/>
<path fill-rule="evenodd" clip-rule="evenodd" d="M119.331 20.749C119.331 20.749 118.65 20.2612 118.645 19.8296C118.641 19.398 118.891 19.0613 118.99 18.8066C118.787 18.9922 118.563 19.3505 118.158 19.5016C117.757 19.6483 117.055 19.1908 117.055 19.1908C117.055 19.1908 117.736 19.6785 117.74 20.1102C117.744 20.5375 117.494 20.8785 117.395 21.1331C117.593 20.9475 117.822 20.5893 118.223 20.4425C118.624 20.2914 119.326 20.749 119.326 20.749H119.331Z" fill="#E79E56"/>
<path d="M132.49 0.000976562H121.02L123.416 5.93589H134.339L132.49 0.000976562Z" fill="#E79E56"/>
<path d="M154.156 0.000976562H143.108L139.121 5.93589H149.522L154.156 0.000976562Z" fill="#E79E56"/>
<path d="M137.137 34.1307H148.133L146.176 29.4863H135.34L137.137 34.1307Z" fill="#E79E56"/>
<path d="M115.047 34.1307H125.543L128.914 29.4863H118.512L115.047 34.1307Z" fill="#E79E56"/>
<path d="M149.521 5.93555H139.12L136.111 10.4115H135.736L134.34 5.93555H123.417L127.865 16.9421L118.512 29.4853H128.913L132.865 24.0467H133.24L135.34 29.4853H146.176L140.909 16.9637L149.521 5.93555Z" fill="#E79E56"/>
<path fill-rule="evenodd" clip-rule="evenodd" d="M154.895 29.5806L155.068 6.02655L156.49 6.03518L156.413 16.5756L169.383 16.6705V16.6231C169.383 16.2173 169.719 15.8893 170.124 15.8936L175.435 15.9325C176.542 15.9411 177.443 16.8561 177.435 17.9654C177.426 19.0747 176.512 19.9768 175.404 19.9682L170.094 19.9294C169.689 19.925 169.361 19.5927 169.366 19.1869V19.1395L156.395 19.0445L156.383 29.6065M150.895 5.99634L154.348 6.02655V29.5676L150.723 29.5504" fill="white"/>
<path fill-rule="evenodd" clip-rule="evenodd" d="M135.796 25.4407C135.473 25.5141 134.96 25.4882 134.533 25.786C134.102 26.0838 134.072 27.1025 134.072 27.1025C134.072 27.1025 134.055 26.0838 133.632 25.7817C133.21 25.4752 132.697 25.4925 132.374 25.4148C132.697 25.3414 133.21 25.363 133.641 25.0652C134.068 24.7674 134.098 23.7487 134.098 23.7487C134.098 23.7487 134.111 24.7674 134.537 25.0695C134.96 25.3716 135.473 25.3587 135.796 25.4364V25.4407ZM150.723 29.5498L150.753 25.5098L137.667 24.8709L150.762 24.1415L150.775 22.8034L146.602 22.2251L150.779 21.8409L150.844 12.9148L135.339 12.5004L150.857 11.4602L150.887 7.20865L150.896 6.35402V5.99146H121.477L121.503 29.58L150.723 29.5498Z" fill="url(#paint0_linear_7482_140)"/>
<path fill-rule="evenodd" clip-rule="evenodd" d="M134.724 14.0159C134.724 14.0159 134.677 15.6733 133.979 16.1568C133.285 16.6445 132.448 16.6056 131.918 16.7222C132.444 16.843 133.28 16.8215 133.966 17.3135C134.655 17.8099 134.681 19.4674 134.681 19.4674C134.681 19.4674 134.733 17.8099 135.427 17.3265C136.121 16.8387 136.957 16.8776 137.487 16.761C136.961 16.6359 136.125 16.6618 135.44 16.1654C134.75 15.6733 134.724 14.0159 134.724 14.0159Z" fill="white"/>
<path fill-rule="evenodd" clip-rule="evenodd" d="M116.158 0.924072C116.158 0.924072 116.106 2.58153 115.412 3.06496C114.718 3.5527 113.882 3.51385 113.352 3.63039C113.878 3.75556 114.714 3.72967 115.399 4.22604C116.089 4.7181 116.115 6.37556 116.115 6.37556C116.115 6.37556 116.162 4.7181 116.861 4.23467C117.559 3.75125 118.391 3.78578 118.921 3.66924C118.395 3.54406 117.559 3.56996 116.873 3.0779C116.184 2.58153 116.162 0.924072 116.162 0.924072H116.158Z" fill="#E79E56"/>
<path fill-rule="evenodd" clip-rule="evenodd" d="M120.521 9.98853C120.521 9.98853 120.469 11.646 119.775 12.1294C119.081 12.6172 118.245 12.5783 117.715 12.6948C118.241 12.82 119.077 12.7941 119.763 13.2905C120.452 13.7826 120.478 15.44 120.478 15.44C120.478 15.44 120.526 13.7826 121.224 13.2991C121.922 12.8157 122.754 12.8502 123.284 12.7337C122.758 12.6085 121.922 12.6344 121.237 12.1424C120.547 11.646 120.525 9.98853 120.525 9.98853H120.521Z" fill="#E79E56"/>
<path d="M16.5004 34.4014H0L4.14234 10.8301H20.6427L19.6944 16.2211H10.0304L9.30625 20.2137H18.384L17.5564 25.0005H8.4614L7.75449 29.0103H17.453L16.5047 34.4014H16.5004Z" fill="#E79E56"/>
<path d="M29.5463 28.768H29.3222L25.835 34.4007H18.9297L25.6971 25.1725C25.5117 24.702 25.3178 24.2057 25.1109 23.6877C24.904 23.1697 24.6841 22.6432 24.4557 22.1166C24.2272 21.5857 23.9988 21.0461 23.7746 20.5023C23.5505 19.9541 23.3306 19.4146 23.1108 18.8793C22.891 18.3441 22.6755 17.8175 22.4643 17.2996C22.253 16.7816 22.0548 16.2896 21.8694 15.832H29.1196L30.6024 21.6547H30.8265L34.3826 15.832H41.6155L34.2275 25.1811C34.4128 25.6516 34.6111 26.1437 34.8223 26.6487C35.0335 27.1537 35.249 27.676 35.4602 28.2025C35.6714 28.7334 35.8913 29.2644 36.1154 29.7996C36.3396 30.3348 36.5594 30.87 36.7792 31.3966C36.9991 31.9275 37.2103 32.4411 37.4172 32.9418C37.6241 33.4425 37.8267 33.9303 38.0206 34.4007H31.0981L29.5463 28.768Z" fill="#E79E56"/>
<path d="M50.6845 34.1516C49.969 33.871 49.3914 33.4653 48.9431 32.943C48.4948 32.4208 48.1931 31.7992 48.0465 31.087H47.8051L46.0982 40.5742H39.4688L43.8007 15.8246H50.4992L49.8267 19.4201H50.1716C50.4604 18.6474 50.8526 17.9827 51.3526 17.4259C51.8527 16.8691 52.4475 16.4332 53.1285 16.1224C53.8139 15.8116 54.5682 15.6562 55.4001 15.6562C57.1717 15.6562 58.5769 16.2692 59.6201 17.495C60.6632 18.7208 61.1805 20.3999 61.1805 22.5321C61.1805 22.9681 61.1589 23.4342 61.1201 23.922C61.0813 24.4097 61.021 24.8802 60.9391 25.3291L60.7322 26.5204C60.4347 28.2598 59.939 29.7274 59.258 30.9187C58.5726 32.11 57.7192 33.0164 56.6933 33.6423C55.6674 34.2638 54.4863 34.5746 53.1372 34.5746C52.2147 34.5746 51.4001 34.4321 50.6845 34.1516ZM48.9345 28.2253C49.1241 28.6569 49.3914 28.985 49.7362 29.2094C50.0811 29.4339 50.4776 29.5461 50.9259 29.5461C51.4432 29.5461 51.9044 29.408 52.3052 29.1317C52.7061 28.8555 53.0423 28.4541 53.3139 27.9232C53.5855 27.3923 53.788 26.7491 53.926 25.9895L54.1329 24.8845C54.1544 24.7334 54.1803 24.5003 54.2018 24.1853C54.2234 23.8702 54.2363 23.5896 54.2363 23.3479C54.2363 22.8084 54.1458 22.3422 53.9605 21.958C53.7751 21.5739 53.5165 21.2718 53.1846 21.0603C52.8527 20.8488 52.4604 20.7408 52.0121 20.7408C51.4949 20.7408 51.0294 20.8833 50.6156 21.1638C50.2018 21.4444 49.8569 21.8545 49.581 22.3897C49.3052 22.9249 49.0983 23.5723 48.9603 24.332L48.7707 25.4542C48.7362 25.6485 48.706 25.8643 48.6845 26.1017C48.6629 26.3391 48.65 26.5376 48.65 26.6973C48.65 27.2844 48.7448 27.7937 48.9345 28.2253Z" fill="#E79E56"/>
<path d="M67.4099 33.9347C66.1081 33.3822 65.0779 32.5362 64.3106 31.3924C63.5434 30.2529 63.1641 28.7983 63.1641 27.0372C63.1641 26.6574 63.1856 26.2733 63.233 25.8805C63.2804 25.4877 63.3365 25.1035 63.4055 24.7237L63.5951 23.5324C63.927 21.6678 64.5606 20.1355 65.4831 18.9442C66.4098 17.7529 67.5349 16.8724 68.8582 16.3069C70.1815 15.7415 71.591 15.4609 73.0867 15.4609C74.2247 15.4609 75.2937 15.6379 76.2894 15.9875C77.2851 16.3371 78.1644 16.8594 78.9317 17.5414C79.6946 18.2277 80.2895 19.078 80.7076 20.0923C81.1257 21.1067 81.3326 22.2807 81.3197 23.6187C81.3197 23.8259 81.2981 24.141 81.2507 24.5683C81.2033 24.9956 81.0912 25.6172 80.9058 26.433H69.6858C69.6383 26.6272 69.6039 26.8603 69.5823 27.1236C69.5608 27.3869 69.5478 27.5897 69.5478 27.7279C69.5478 28.1768 69.6427 28.5825 69.8323 28.9364C70.022 29.2947 70.3065 29.5752 70.6858 29.7738C71.0651 29.9767 71.5436 30.0759 72.1169 30.0759C72.5307 30.0759 72.9057 30.0155 73.2462 29.8946C73.5867 29.7738 73.8712 29.5882 74.1083 29.3422C74.3454 29.0961 74.4962 28.7767 74.5652 28.3839H80.6558C80.5395 29.558 80.1084 30.6241 79.3541 31.5823C78.5998 32.5405 77.5782 33.3088 76.2894 33.8915C75.0005 34.4742 73.4833 34.7634 71.7332 34.7634C70.147 34.7634 68.703 34.4872 67.4012 33.9347H67.4099ZM75.1083 22.7253C75.1212 22.6174 75.1255 22.5138 75.1255 22.4231C75.1385 21.9872 75.0738 21.5901 74.9359 21.2405C74.798 20.8908 74.5652 20.6103 74.2376 20.4031C73.91 20.1959 73.4962 20.0923 73.0048 20.0923C72.5134 20.0923 72.1255 20.1916 71.7806 20.3858C71.4358 20.5801 71.147 20.8649 70.9186 21.2405C70.6901 21.616 70.5091 22.0606 70.3841 22.5785C70.3625 22.6605 70.341 22.7382 70.3237 22.8202C70.3065 22.9022 70.2849 22.9886 70.2634 23.0792H75.0609C75.0824 22.954 75.0997 22.8332 75.1126 22.7253H75.1083Z" fill="#E79E56"/>
<path d="M86.1372 15.8234H92.3658L91.8485 18.8319H92.1589C92.4132 17.9773 92.896 17.2219 93.6072 16.5572C94.3184 15.8968 95.2883 15.5645 96.5081 15.5645C97.2107 15.5645 97.7668 15.6378 98.172 15.7803C98.5814 15.9227 98.8401 16.0436 98.9565 16.1342L97.8185 21.7497C97.5771 21.6116 97.1935 21.4691 96.6719 21.3267C96.146 21.1843 95.6202 21.1109 95.0943 21.1109C94.2322 21.1109 93.5296 21.2965 92.9908 21.672C92.452 22.0475 92.0253 22.5612 91.7149 23.2172C91.4046 23.8733 91.1761 24.6416 91.0252 25.5178L89.4562 34.4008H82.8828L86.1458 15.8234H86.1372Z" fill="#E79E56"/>
<path d="M104.398 11.6416H110.713L109.92 16.2039H113.631L112.769 21.0598H109.161L108.006 27.5903C107.984 27.7414 107.967 27.8623 107.954 27.9529C107.941 28.0435 107.937 28.1126 107.937 28.1601C107.937 28.773 108.113 29.2003 108.463 29.4463C108.812 29.6924 109.342 29.8175 110.04 29.8175C110.329 29.8175 118.14 29.8348 118.265 29.8132L115.045 34.1295C114.825 34.1986 108.312 34.1295 107.588 34.1295C105.471 34.1295 103.863 34.1727 102.764 33.5037C101.665 32.8346 101.118 31.7815 101.118 30.3398C101.118 29.9125 101.156 29.4679 101.238 29.0104L102.652 21.0598H100.113L100.993 16.2039H103.583L104.394 11.6416H104.398Z" fill="#E79E56"/>
</g>
<defs>
<linearGradient id="paint0_linear_7482_140" x1="121.477" y1="17.7879" x2="150.896" y2="17.7879" gradientUnits="userSpaceOnUse">
<stop stop-color="#E75658" stop-opacity="0"/>
<stop offset="0.99" stop-color="#E75658"/>
</linearGradient>
<clipPath id="clip0_7482_140">
<rect width="177.435" height="50" fill="white"/>
</clipPath>
</defs>
</svg>
